<svg xmlns="http://www.w3.org/2000/svg" viewBox="0 0 776 549" width="776" height="549" role="img" aria-label="Engineering Skill Radar" font-family="ui-sans-serif,-apple-system,Segoe UI,Helvetica,Arial,sans-serif"><text x="388.0" y="25" text-anchor="middle" font-size="15" font-weight="700" fill="#1f2328">Engineering Skill Radar</text><g transform="translate(404.4,289.0)"><polygon points="0.0,-212.0 183.6,-106.0 183.6,106.0 0.0,212.0 -183.6,106.0 -183.6,-106.0" fill="none" stroke="#d0d7de" stroke-width="1" opacity="0.85"/><polygon points="0.0,-159.0 137.7,-79.5 137.7,79.5 0.0,159.0 -137.7,79.5 -137.7,-79.5" fill="none" stroke="#d0d7de" stroke-width="1" opacity="0.72"/><polygon points="0.0,-106.0 91.8,-53.0 91.8,53.0 0.0,106.0 -91.8,53.0 -91.8,-53.0" fill="none" stroke="#d0d7de" stroke-width="1" opacity="0.60"/><polygon points="0.0,-53.0 45.9,-26.5 45.9,26.5 0.0,53.0 -45.9,26.5 -45.9,-26.5" fill="none" stroke="#d0d7de" stroke-width="1" opacity="0.47"/><line x1="0" y1="0" x2="0.0" y2="-212.0" stroke="#e6eaef" stroke-width="1"/><line x1="0" y1="0" x2="183.6" y2="-106.0" stroke="#e6eaef" stroke-width="1"/><line x1="0" y1="0" x2="183.6" y2="106.0" stroke="#e6eaef" stroke-width="1"/><line x1="0" y1="0" x2="0.0" y2="212.0" stroke="#e6eaef" stroke-width="1"/><line x1="0" y1="0" x2="-183.6" y2="106.0" stroke="#e6eaef" stroke-width="1"/><line x1="0" y1="0" x2="-183.6" y2="-106.0" stroke="#e6eaef" stroke-width="1"/><g><animateTransform attributeName="transform" type="scale" values="0.04;1" dur="1.1s" calcMode="spline" keyTimes="0;1" keySplines="0.22 1 0.36 1" fill="freeze"/><polygon points="0.0,-190.8 137.7,-79.5 119.3,68.9 0.0,148.4 -137.7,79.5 -73.4,-42.4" fill="#0969DA" fill-opacity="0.22" stroke="#0969DA" stroke-width="2.5" stroke-linejoin="round"/><circle cx="0.0" cy="-190.8" r="3.6" fill="#0969DA" stroke="#0969DA" stroke-width="1.2"/><circle cx="137.7" cy="-79.5" r="3.6" fill="#0969DA" stroke="#0969DA" stroke-width="1.2"/><circle cx="119.3" cy="68.9" r="3.6" fill="#0969DA" stroke="#0969DA" stroke-width="1.2"/><circle cx="0.0" cy="148.4" r="3.6" fill="#0969DA" stroke="#0969DA" stroke-width="1.2"/><circle cx="-137.7" cy="79.5" r="3.6" fill="#0969DA" stroke="#0969DA" stroke-width="1.2"/><circle cx="-73.4" cy="-42.4" r="3.6" fill="#0969DA" stroke="#0969DA" stroke-width="1.2"/></g><text x="0.0" y="-237.0" text-anchor="middle" font-size="13" font-weight="600" fill="#1f2328">Bases de Datos (SQL)</text><text x="200.9" y="-121.0" text-anchor="start" font-size="13" font-weight="600" fill="#1f2328">Frontend (React/JS)</text><text x="200.9" y="130.0" text-anchor="start" font-size="13" font-weight="600" fill="#1f2328">Backend (Python/PHP)</text><text x="0.0" y="246.0" text-anchor="middle" font-size="13" font-weight="600" fill="#1f2328">Sistemas (Linux/Servers)</text><text x="-200.9" y="130.0" text-anchor="end" font-size="13" font-weight="600" fill="#1f2328">Arquitectura de Software</text><text x="-200.9" y="-121.0" text-anchor="end" font-size="13" font-weight="600" fill="#1f2328">Ciberseguridad</text></g></svg>